# xmcd
#
# Track frame offsets: 
#        150
#        13050
#        33837
#        58094
#        80254
#        101547
#        122099
#        140024
#        162450
#        180976
#        200327
#
# Disc length: 2987 seconds
#
# Revision: 0
# Processed by: cddbd v1.5.2PL0 Copyright (c) Steve Scherf et al.
# Submitted via: ExactAudioCopy v1.2
#
DISCID=8c0ba90b
DTITLE=Eric Gales - Middle of the Road
DYEAR=2017
DGENRE=Blues
TTITLE0=Good Time
TTITLE1=Change in Me (The Rebirth)
TTITLE2=Carry Yourself
TTITLE3=Boogie Man (feat. Gary Clark Jr.)
TTITLE4=Been So Long
TTITLE5=Help Yourself (feat. Christone 'Kingfish' Ingram)
TTITLE6=I've Been Deceived
TTITLE7=Repetition (feat. Eugene Gales)
TTITLE8=Help Me Let Go
TTITLE9=I Don't Know
TTITLE10=Swamp
EXTD=
EXTT0=
EXTT1=
EXTT2=
EXTT3=
EXTT4=
EXTT5=
EXTT6=
EXTT7=
EXTT8=
EXTT9=
EXTT10=
PLAYORDER=
